<svg id="Layer_1" data-name="Layer 1" xmlns="http://www.w3.org/2000/svg" viewBox="0 0 510 420.41"><title>logo</title><path d="M496.49,47.59h-481A14.5,14.5,0,0,0,1,62.09V382.71a14.51,14.51,0,0,0,14.51,14.51h481A14.51,14.51,0,0,0,511,382.71V62.09A14.5,14.5,0,0,0,496.49,47.59Zm-20,316.59H34.26V66.86H476.51Zm23.73,23.4a7.58,7.58,0,1,1,7.22-7.57A7.41,7.41,0,0,1,500.24,387.58Z" transform="translate(-1 -47.59)"/><rect x="236.61" y="330.36" width="36.78" height="52.31"/><path d="M170.45,381.87H341.32a7,7,0,0,1,7,7v31.59a0,0,0,0,1,0,0H161.73a0,0,0,0,1,0,0V390.59a8.72,8.72,0,0,1,8.72-8.72Z"/><path d="M57.49,192.87V340.78H117l2.72-19.38c47.85,7.36,87-4.42,116.38-35,21.94-22.86,29.87-47.76,29.94-48l18.24,6.23c-.38,1.21-9.47,29.8-34.66,56a137,137,0,0,1-73.7,40.15H295.49V192.87ZM167.9,277.69c-7,4.24-18.51-2.86-25.68-15.87s-7.28-27-.27-31.23,18.51,2.86,25.68,15.86S174.92,273.44,167.9,277.69Zm53.38-22.28c-7.5,3.22-18-5.43-23.42-19.33s-3.77-27.77,3.73-31,18,5.44,23.41,19.33S228.77,252.19,221.28,255.41Z" transform="translate(-1 -47.59)"/></svg>